<svg xmlns="http://www.w3.org/2000/svg" viewBox="0 0 1464 24" width="1464" height="24"><g fill="#FFFFFF"><path d="M20.2 13.5H3.8c-.6 0-1-.5-1-1v-.9c0-.6.5-1 1-1h16.4c.6 0 1 .5 1 1v.9c.1.5-.4 1-1 1zM20.2 7.8H3.8c-.6 0-1-.5-1-1v-.9c0-.6.5-1 1-1h16.4c.6 0 1 .5 1 1v.9c0 .6-.4 1-1 1zM20.2 19.2H3.8c-.6 0-1-.5-1-1v-.9c0-.6.5-1 1-1h16.4c.6 0 1 .5 1 1v.9c.1.5-.4 1-1 1z"/></g><g fill="#FFFFFF"><path d="M44.2 13.5H27.8c-.6 0-1-.5-1-1v-.9c0-.6.5-1 1-1h16.4c.6 0 1 .5 1 1v.9c.1.5-.4 1-1 1zM44.2 7.8H31.448c-.6 0-1-.5-1-1v-.9c0-.6.5-1 1-1H44.2c.6 0 1 .5 1 1v.9c0 .6-.4 1-1 1zM44.2 19.2H27.8c-.6 0-1-.5-1-1v-.9c0-.6.5-1 1-1h16.4c.6 0 1 .5 1 1v.9c.1.5-.4 1-1 1z"/></g><g fill="#FFFFFF"><path d="M68.2 13.5H51.8c-.6 0-1-.5-1-1v-.9c0-.6.5-1 1-1h16.4c.6 0 1 .5 1 1v.9c.1.5-.4 1-1 1zM68.2 7.8h-9.562c-.6 0-1-.5-1-1v-.9c0-.6.5-1 1-1H68.2c.6 0 1 .5 1 1v.9c0 .6-.4 1-1 1zM68.2 19.2H51.8c-.6 0-1-.5-1-1v-.9c0-.6.5-1 1-1h16.4c.6 0 1 .5 1 1v.9c.1.5-.4 1-1 1z"/></g><g fill="#FFFFFF"><path d="M92.2 13.5H75.8c-.6 0-1-.5-1-1v-.9c0-.6.5-1 1-1h16.4c.6 0 1 .5 1 1v.9c.1.5-.4 1-1 1zM92.2 7.8h-6.831c-.6 0-1-.5-1-1v-.9c0-.6.5-1 1-1H92.2c.6 0 1 .5 1 1v.9c0 .6-.4 1-1 1zM92.2 19.2H75.8c-.6 0-1-.5-1-1v-.9c0-.6.5-1 1-1h16.4c.6 0 1 .5 1 1v.9c.1.5-.4 1-1 1z"/></g><g fill="#FFFFFF"><path d="M116.2 13.5H99.8c-.6 0-1-.5-1-1v-.9c0-.6.5-1 1-1h16.4c.6 0 1 .5 1 1v.9c.1.5-.4 1-1 1zM116.2 7.8h-4.558c-.6 0-1-.5-1-1v-.9c0-.6.5-1 1-1h4.558c.6 0 1 .5 1 1v.9c0 .6-.4 1-1 1zM116.2 19.2H99.8c-.6 0-1-.5-1-1v-.9c0-.6.5-1 1-1h16.4c.6 0 1 .5 1 1v.9c.1.5-.4 1-1 1z"/></g><g fill="#FFFFFF"><path d="M140.2 13.5h-16.4c-.6 0-1-.5-1-1v-.9c0-.6.5-1 1-1h16.4c.6 0 1 .5 1 1v.9c.1.5-.4 1-1 1zM140.2 7.8h-2.743c-.6 0-1-.5-1-1v-.9c0-.6.5-1 1-1h2.743c.6 0 1 .5 1 1v.9c0 .6-.4 1-1 1zM140.2 19.2h-16.4c-.6 0-1-.5-1-1v-.9c0-.6.5-1 1-1h16.4c.6 0 1 .5 1 1v.9c.1.5-.4 1-1 1z"/></g><g fill="#FFFFFF"><path d="M164.2 13.5h-16.4c-.6 0-1-.5-1-1v-.9c0-.6.5-1 1-1h16.4c.6 0 1 .5 1 1v.9c.1.5-.4 1-1 1zM164.2 7.8h-1.387c-.6 0-1-.5-1-1v-.9c0-.6.5-1 1-1h1.387c.6 0 1 .5 1 1v.9c0 .6-.4 1-1 1zM164.2 19.2h-16.4c-.6 0-1-.5-1-1v-.9c0-.6.5-1 1-1h16.4c.6 0 1 .5 1 1v.9c.1.5-.4 1-1 1z"/></g><g fill="#FFFFFF"><path d="M188.2 13.5h-16.4c-.6 0-1-.5-1-1v-.9c0-.6.5-1 1-1h16.4c.6 0 1 .5 1 1v.9c.1.5-.4 1-1 1zM188.2 7.8h-.488c-.6 0-1-.5-1-1v-.9c0-.6.5-1 1-1h.488c.6 0 1 .5 1 1v.9c0 .6-.4 1-1 1zM188.2 19.2h-16.4c-.6 0-1-.5-1-1v-.9c0-.6.5-1 1-1h16.4c.6 0 1 .5 1 1v.9c.1.5-.4 1-1 1z"/></g><g fill="#FFFFFF"><path d="M212.2 13.5h-16.4c-.6 0-1-.5-1-1v-.9c0-.6.5-1 1-1h16.4c.6 0 1 .5 1 1v.9c.1.5-.4 1-1 1zM212.2 7.8h-.048c-.6 0-1-.5-1-1v-.9c0-.6.5-1 1-1h.048c.6 0 1 .5 1 1v.9c0 .6-.4 1-1 1zM212.2 19.2h-16.4c-.6 0-1-.5-1-1v-.9c0-.6.5-1 1-1h16.4c.6 0 1 .5 1 1v.9c.1.5-.4 1-1 1z"/></g><g fill="#FFFFFF"><path d="M236.2 13.5h-16.4c-.6 0-1-.5-1-1v-.9c0-.6.5-1 1-1h16.4c.6 0 1 .5 1 1v.9c.1.5-.4 1-1 1zM236.2 7.817c-.596 0-.994-.497-.994-.994v-.946c0-.596.497-.994.994-.994.596 0 .994.497.994.994v.946c0 .597-.398.994-.994.994zM236.2 19.2h-16.4c-.6 0-1-.5-1-1v-.9c0-.6.5-1 1-1h16.4c.6 0 1 .5 1 1v.9c.1.5-.4 1-1 1z"/></g><g fill="#FFFFFF"><path d="M260.192 13.512l-16.389-.026c-.6-.001-.999-.501-.998-1.001l.002-.9c.001-.599.501-.998 1.001-.998l16.389.026c.6.001.999.502.998 1.002l-.002.899c.099.5-.401.999-1.001.998zM260.2 7.985c-.554 0-.931-.465-.931-.93v-1.41c0-.553.466-.93.931-.93.554 0 .931.465.931.93v1.41c0 .565-.377.93-.931.93zM260.197 19.173l-16.389.026c-.6.001-1.001-.498-1.002-.997l-.001-.9c-.001-.6.498-1 .998-1.001l16.389-.026c.6-.001 1.001.498 1.002.998l.001.899c.101.5-.398 1-.998 1.001z"/></g><g fill="#FFFFFF"><path d="M284.155 13.571l-16.338-.154c-.597-.005-.992-.508-.987-1.006l.009-.898c.006-.597.508-.992 1.007-.987l16.337.153c.597.005.992.508.987 1.006l-.009.898c.093.5-.408.993-1.006.988zM284.2 8.437c-.441 0-.761-.381-.761-.761V5.024c0-.441.38-.761.761-.761.441 0 .761.381.761.761v2.652c0 .48-.32.761-.761.761zM284.183 19.042l-16.338.154c-.598.005-1.002-.488-1.007-.987l-.009-.897c-.005-.598.488-1.001.987-1.007l16.339-.152c.598-.005 1.002.488 1.007.987l.009.897c.103.499-.391 1-.988 1.005z"/></g><g fill="#FFFFFF"><path d="M308.079 13.693l-16.233-.418c-.592-.014-.978-.521-.964-1.018l.025-.892c.014-.593.521-.979 1.018-.965l16.229.414c.592.014.978.521.964 1.018l-.025.893c.082.5-.421.982-1.014.968zM308.2 8.884c-.329 0-.594-.297-.594-.594V4.41c0-.329.297-.594.594-.594.329 0 .594.297.594.594v3.88c0 .397-.265.594-.594.594zM308.154 18.772l-16.233.417c-.593.015-1.003-.468-1.018-.964l-.025-.893c-.014-.593.468-1.003.965-1.018l16.236-.414c.593-.014 1.003.468 1.018.965l.025.893c.107.496-.376 1-.968 1.014z"/></g><g fill="#FFFFFF"><path d="M331.949 13.898l-16.053-.862c-.585-.03-.956-.544-.927-1.037l.052-.885c.03-.586.544-.956 1.037-.927l16.046.855c.585.03.956.544.927 1.037l-.052.885c.063.5-.444.963-1.03.934zM332.2 9.141c-.265 0-.497-.249-.497-.498V4.057c0-.265.248-.498.497-.498.265 0 .497.249.497.498v4.586c0 .349-.232.498-.497.498zM332.104 18.316l-16.053.862c-.586.029-1.008-.434-1.037-.926l-.052-.886c-.029-.585.434-1.007.926-1.037l16.061-.854c.586-.03 1.008.433 1.037.926l.052.885c.115.493-.349 1-.934 1.03z"/></g><g fill="#FFFFFF"><path d="M355.751 14.213l-15.779-1.544c-.574-.053-.921-.58-.868-1.066l.092-.874c.053-.574.579-.921 1.066-.868l15.766 1.531c.574.053.921.579.868 1.066l-.092.873c.034.5-.479.934-1.053.882zM356.2 9.284c-.229 0-.443-.222-.443-.443V3.859c0-.229.221-.443.443-.443.229 0 .443.222.443.443v4.982c0 .321-.214.443-.443.443zM356.028 17.616l-15.779 1.544c-.574.053-1.013-.381-1.066-.868l-.093-.873c-.052-.574.382-1.013.868-1.066l15.793-1.531c.574-.053 1.013.381 1.066.868l.093.874c.126.486-.308 1-.882 1.052z"/></g><g fill="#FFFFFF"><path d="M379.47 14.659l-15.391-2.511c-.557-.086-.871-.629-.785-1.108l.15-.857c.086-.557.629-.871 1.107-.785l15.37 2.49c.557.086.871.629.785 1.107l-.15.857c-.007.5-.529.893-1.086.807zM380.2 9.361c-.21 0-.415-.207-.415-.415V3.754c0-.21.208-.415.415-.415.21 0 .415.207.415.415v5.192c0 .308-.205.415-.415.415z"/><path d="M379.921 16.624l-15.391 2.512c-.557.085-1.022-.307-1.108-.786l-.15-.857c-.086-.557.307-1.021.786-1.107l15.412-2.49c.557-.086 1.022.307 1.108.785l.15.858c.143.478-.25 1-.807 1.085z"/></g><g fill="#FFFFFF"><path d="M403.114 15.225l-14.899-3.737c-.536-.128-.808-.692-.68-1.16l.223-.836c.128-.536.692-.808 1.16-.681l14.867 3.705c.536.128.808.692.68 1.16l-.223.836c-.06.5-.592.841-1.128.713zM404.2 9.395c-.201 0-.402-.201-.402-.402V3.707c0-.201.201-.402.402-.402s.402.201.402.402v5.286c0 .301-.201.402-.402.402z"/><path d="M403.785 15.367l-14.899 3.737c-.536.128-1.032-.212-1.16-.68l-.223-.837c-.128-.536.212-1.031.68-1.159l14.931-3.705c.536-.128 1.032.212 1.16.68l.223.836c.164.468-.176 1-.712 1.128z"/></g><g fill="#FFFFFF"><path d="M426.728 15.838l-14.365-5.065c-.514-.173-.741-.76-.567-1.217l.303-.813c.173-.513.759-.74 1.216-.567l14.322 5.021c.514.173.741.76.567 1.217l-.303.813c-.116.5-.659.784-1.173.611zM428.598 3.712c0-.199-.199-.398-.398-.398s-.398.199-.398.398v5.276c0 .199.199.398.398.398s.398-.1.398-.398V3.712"/><path d="M427.637 14.005l-14.365 5.065c-.514.173-1.043-.11-1.217-.567l-.303-.813c-.173-.514.111-1.044.567-1.217l14.409-5.021c.514-.173 1.043.11 1.217.567l.303.813c.186.457-.097 1-.611 1.173z"/></g><g fill="#FFFFFF"><path d="M450.368 16.409L436.5 10.106c-.492-.215-.676-.823-.461-1.269l.377-.792c.216-.493.823-.677 1.269-.462l13.815 6.249c.492.216.676.823.461 1.269l-.377.793c-.169.5-.723.73-1.216.515zM452.568 3.906c0-.184-.184-.368-.368-.368s-.368.184-.368.368v4.88c0 .184.184.368.368.368s.368-.092.368-.368v-4.88"/><path d="M451.5 12.736l-13.868 6.302c-.493.216-1.054-.015-1.27-.461l-.377-.792c-.215-.492.015-1.054.461-1.27l13.922-6.248c.493-.216 1.054.015 1.27.461l.377.792c.208.446-.023 1-.515 1.216z"/></g><g fill="#FFFFFF"><path d="M474.062 16.896l-13.444-7.359c-.475-.251-.623-.877-.371-1.314l.44-.774c.251-.474.877-.623 1.314-.371l13.381 7.296c.475.251.623.877.371 1.314l-.44.775c-.214.5-.777.685-1.251.433zM476.475 4.509c0-.137-.137-.275-.275-.275s-.275.138-.275.275v3.65c0 .138.137.276.275.276s.275-.069.275-.276v-3.65"/><path d="M475.382 11.652l-13.444 7.359c-.474.252-1.062.066-1.314-.371l-.44-.774c-.252-.474-.066-1.063.371-1.314l13.507-7.296c.474-.252 1.062-.067 1.314.371l.44.774c.226.437.041 1-.434 1.251z"/></g><g fill="#FFFFFF"><path d="M497.808 17.298l-13.094-8.229c-.459-.282-.578-.922-.296-1.352l.492-.759c.282-.46.922-.578 1.352-.297l13.024 8.159c.459.282.578.922.296 1.352l-.492.759c-.252.5-.822.649-1.282.367zM500.357 5.278c0-.079-.078-.157-.157-.157s-.157.078-.157.157v2.083c0 .079.078.158.157.158s.157-.04.157-.158V5.278"/><path d="M499.286 10.759l-13.094 8.23c-.46.281-1.071.133-1.352-.297l-.493-.759c-.281-.459-.133-1.07.297-1.352l13.164-8.159c.46-.281 1.071-.133 1.352.297l.493.759c.24.43.092 1-.367 1.281z"/></g><g fill="#FFFFFF"><path d="M521.602 17.627l-12.808-8.942c-.448-.306-.542-.958-.236-1.382l.535-.747c.305-.447.958-.542 1.382-.236l12.731 8.866c.448.305.542.958.236 1.382l-.535.747c-.282.5-.858.618-1.305.312zM524.283 5.761c0-.041-.042-.083-.083-.083s-.083.042-.083.083V6.86c0 .041.042.083.083.083s.083-.021.083-.083V5.761"/><path d="M523.206 10.029l-12.808 8.942c-.447.305-1.076.188-1.382-.236l-.535-.747c-.305-.447-.187-1.077.236-1.382l12.885-8.866c.447-.305 1.076-.188 1.382.236l.535.747c.252.424.135 1-.313 1.306z"/></g><g fill="#FFFFFF"><path d="M545.432 17.896l-12.574-9.525c-.437-.325-.511-.988-.186-1.407l.57-.737c.326-.437.989-.511 1.407-.186l12.493 9.443c.437.326.511.989.186 1.407l-.57.738c-.307.5-.889.593-1.326.267zM548.24 6.037c0-.02-.02-.04-.04-.04s-.04.02-.04.04v.536c0 .02.02.04.04.04s.04-.01.04-.04v-.536"/><path d="M547.142 9.431l-12.574 9.525c-.437.325-1.082.232-1.407-.186l-.57-.737c-.326-.438-.233-1.082.186-1.407l12.655-9.444c.437-.325 1.082-.232 1.407.186l.57.738c.263.418.17 1-.267 1.325z"/></g><g fill="#FFFFFF"><path d="M569.293 18.117L556.911 8.114c-.429-.342-.487-1.013-.145-1.427l.599-.73c.342-.429 1.013-.487 1.427-.145l12.297 9.918c.429.342.487 1.013.145 1.427l-.599.729c-.327.5-.913.573-1.342.231zM572.216 6.193c0-.008-.008-.016-.016-.016s-.016.008-.016.016v.218c0 .008.008.016.016.016s.016-.004.016-.016v-.218"/><path d="M571.089 8.941l-12.382 10.003c-.429.341-1.086.269-1.428-.146l-.598-.729c-.342-.429-.27-1.085.145-1.427l12.467-9.917c.429-.342 1.086-.27 1.428.145l.598.729c.271.414.199 1-.23 1.342z"/></g><g fill="#FFFFFF"><path d="M593.179 18.298L580.955 7.903c-.422-.356-.467-1.033-.112-1.445l.622-.722c.356-.422 1.033-.467 1.445-.111l12.135 10.306c.422.355.467 1.033.112 1.444l-.622.722c-.345.5-.933.556-1.356.201zM596.204 6.273c0-.002-.002-.004-.004-.004s-.004.002-.004.004v.055c0 .002.002.004.004.004s.004-.001.004-.004v-.055"/><path d="M595.045 8.539l-12.224 10.394c-.423.356-1.089.3-1.444-.111l-.622-.722c-.356-.423-.3-1.089.111-1.445l12.313-10.306c.423-.355 1.089-.299 1.444.112l.622.722c.278.411.222 1-.2 1.356z"/></g><g fill="#FFFFFF"><path d="M617.086 18.446L604.991 7.73c-.417-.367-.451-1.05-.084-1.458l.641-.717c.366-.417 1.049-.451 1.458-.084l12.003 10.625c.417.366.451 1.049.084 1.457l-.641.717c-.358.5-.949.542-1.366.176zM620.2 6.3"/><path d="M619.009 8.209l-12.095 10.716c-.417.367-1.091.325-1.458-.084l-.641-.717c-.366-.416-.324-1.091.084-1.458l12.187-10.624c.417-.367 1.091-.325 1.458.084l.641.717c.283.408.241 1-.176 1.366z"/></g><g fill="#FFFFFF"><path d="M641.01 18.567L629.02 7.589c-.413-.376-.437-1.063-.062-1.469l.657-.713c.375-.412 1.063-.437 1.469-.061L642.98 16.23c.413.375.437 1.063.062 1.469l-.657.712c-.369.5-.963.531-1.375.156zM644.2 6.3"/><path d="M642.98 7.941l-11.99 10.978c-.412.375-1.094.344-1.469-.062l-.657-.713c-.375-.412-.344-1.093.062-1.469L641.01 5.791c.412-.375 1.094-.344 1.469.062l.657.712c.287.406.257 1-.156 1.376z"/></g><g fill="#FFFFFF"><path d="M664.949 18.664L653.043 7.475c-.409-.382-.426-1.074-.043-1.478l.669-.709c.382-.408 1.074-.426 1.478-.043l11.81 11.093c.409.382.426 1.074.043 1.478l-.669.709c-.378.5-.974.522-1.382.139zM668.2 6.3"/><path d="M666.957 7.724l-11.906 11.189c-.408.383-1.095.361-1.478-.044l-.669-.708c-.383-.409-.361-1.096.044-1.478l12.001-11.094c.408-.382 1.095-.36 1.478.044l.669.709c.291.404.27 1-.139 1.382z"/></g><g fill="#FFFFFF"><path d="M688.9 18.741L677.062 7.385c-.406-.388-.418-1.082-.03-1.485l.68-.706c.388-.406 1.082-.418 1.485-.029l11.741 11.259c.406.388.418 1.082.03 1.485l-.68.706c-.385.5-.982.514-1.388.126zM692.2 6.3"/><path d="M690.938 7.553L679.1 18.909c-.406.388-1.097.373-1.485-.03l-.68-.705c-.388-.406-.373-1.098.03-1.486L688.9 5.429c.406-.388 1.097-.373 1.485.03l.68.706c.294.403.279 1-.127 1.388z"/></g><g fill="#FFFFFF"><path d="M712.863 18.801L701.076 7.316c-.404-.393-.411-1.089-.018-1.491l.687-.704c.392-.403 1.089-.411 1.491-.018l11.688 11.387c.404.392.411 1.089.018 1.49l-.687.704c-.391.5-.989.509-1.392.117zM716.2 6.3"/><path d="M714.924 7.421l-11.787 11.485c-.403.392-1.098.383-1.49-.019l-.687-.704c-.393-.403-.384-1.098.018-1.49l11.885-11.387c.403-.393 1.098-.383 1.49.018l.687.704c.297.402.288 1-.116 1.393z"/></g><g fill="#FFFFFF"><path d="M736.835 18.845l-11.748-11.58c-.402-.396-.406-1.094-.011-1.495l.693-.702c.396-.402 1.094-.406 1.495-.011l11.649 11.481c.402.396.406 1.094.011 1.495l-.693.702c-.395.5-.994.506-1.396.11zM740.2 6.3"/><path d="M738.913 7.323l-11.748 11.58c-.402.396-1.099.391-1.495-.01l-.693-.702c-.395-.402-.39-1.099.011-1.495l11.847-11.481c.402-.396 1.099-.391 1.495.01l.693.702c.298.401.292 1-.11 1.396z"/></g><g fill="#FFFFFF"><path d="M760.816 18.875L749.094 7.229c-.401-.398-.403-1.097-.005-1.497l.697-.701c.398-.401 1.097-.403 1.498-.005l11.622 11.546c.401.398.403 1.097.005 1.498l-.697.701c-.398.5-.997.502-1.398.104zM764.2 6.3"/><path d="M762.906 7.256l-11.722 11.645c-.401.399-1.099.396-1.497-.004l-.697-.701c-.398-.401-.396-1.1.004-1.498l11.822-11.546c.401-.398 1.099-.396 1.497.005l.697.701c.299.4.297 1-.104 1.398z"/></g><g fill="#FFFFFF"><path d="M784.804 18.893L773.098 7.208c-.4-.399-.4-1.099-.001-1.499l.699-.7c.4-.401 1.099-.401 1.499-.002l11.607 11.585c.4.4.4 1.099.001 1.499l-.699.701c-.399.5-.999.5-1.4.101zM788.2 6.3"/><path d="M786.902 7.216L775.196 18.9c-.401.4-1.1.399-1.5-.001l-.699-.7c-.399-.4-.399-1.1.001-1.5l11.806-11.584c.401-.4 1.1-.399 1.5.001l.699.7c.3.4.299 1-.101 1.4z"/></g><g fill="#FFFFFF"><path d="M808.8 18.9L797.1 7.2c-.4-.4-.4-1.1 0-1.5l.7-.7c.4-.4 1.1-.4 1.5 0l11.6 11.6c.4.4.4 1.1 0 1.5l-.7.7c-.4.5-1 .5-1.4.1zM812.2 6.3"/><path d="M810.9 7.2l-11.7 11.7c-.4.4-1.1.4-1.5 0l-.7-.7c-.4-.4-.4-1.1 0-1.5l11.8-11.6c.4-.4 1.1-.4 1.5 0l.7.7c.3.4.3 1-.1 1.4z"/></g><g fill="#FFFFFF"><path d="M832.8 18.9L821.1 7.2c-.4-.4-.4-1.1 0-1.5l.7-.7c.4-.4 1.1-.4 1.5 0l11.6 11.6c.4.4.4 1.1 0 1.5l-.7.7c-.4.5-1 .5-1.4.1zM836.2 6.3"/><path d="M834.9 7.2l-11.7 11.7c-.4.4-1.1.4-1.5 0l-.7-.7c-.4-.4-.4-1.1 0-1.5l11.8-11.6c.4-.4 1.1-.4 1.5 0l.7.7c.3.4.3 1-.1 1.4z"/></g></svg>